<svg width="30" height="34" viewBox="0 0 30 34" fill="none" xmlns="http://www.w3.org/2000/svg">
<path d="M26.6667 3.99996H19.7C19 2.06663 17.1667 0.666626 15 0.666626C12.8333 0.666626 11 2.06663 10.3 3.99996H3.33333C1.5 3.99996 0 5.49996 0 7.33329V30.6666C0 32.5 1.5 34 3.33333 34H26.6667C28.5 34 30 32.5 30 30.6666V7.33329C30 5.49996 28.5 3.99996 26.6667 3.99996ZM15 3.99996C15.9167 3.99996 16.6667 4.74996 16.6667 5.66663C16.6667 6.58329 15.9167 7.33329 15 7.33329C14.0833 7.33329 13.3333 6.58329 13.3333 5.66663C13.3333 4.74996 14.0833 3.99996 15 3.99996ZM18.3333 27.3333H6.66667V24H18.3333V27.3333ZM23.3333 20.6666H6.66667V17.3333H23.3333V20.6666ZM23.3333 14H6.66667V10.6666H23.3333V14Z" fill="#006B5C"/>
</svg>
