<svg width="34" height="34" viewBox="0 0 34 34" fill="none" xmlns="http://www.w3.org/2000/svg">
<path d="M17 0.333374C7.80004 0.333374 0.333374 7.80004 0.333374 17C0.333374 26.2 7.80004 33.6667 17 33.6667C26.2 33.6667 33.6667 26.2 33.6667 17C33.6667 7.80004 26.2 0.333374 17 0.333374ZM19.35 27.15V30.3334H14.9V27.1167C12.05 26.5167 9.63337 24.6834 9.45004 21.45H12.7167C12.8834 23.2 14.0834 24.5667 17.1334 24.5667C20.4 24.5667 21.1334 22.9334 21.1334 21.9167C21.1334 20.5334 20.4 19.2334 16.6834 18.35C12.55 17.35 9.71671 15.65 9.71671 12.2334C9.71671 9.36671 12.0334 7.50004 14.9 6.88337V3.66671H19.35V6.91671C22.45 7.66671 24 10.0167 24.1 12.5667H20.8334C20.75 10.7167 19.7667 9.45004 17.1334 9.45004C14.6334 9.45004 13.1334 10.5834 13.1334 12.1834C13.1334 13.5834 14.2167 14.5 17.5834 15.3667C20.95 16.2334 24.55 17.6834 24.55 21.8834C24.5334 24.9334 22.25 26.6 19.35 27.15Z" fill="#006B5C"/>
</svg>
